<svg id='Dashboard_Layout_Square_24' width='24' height='24' viewBox='0 0 24 24' xmlns='http://www.w3.org/2000/svg'
  xmlns:xlink='http://www.w3.org/1999/xlink'>
  <rect width='24' height='24' stroke='none' fill='#ffffff' opacity='0' />


  <g transform="matrix(1.43 0 0 1.43 12 12)">
    <g style="">
      <g transform="matrix(1 0 0 1 3.78 -3.85)">
        <path
          style="stroke: rgb(255,255,255); stroke-width: 1; stroke-dasharray: none; stroke-linecap: butt; stroke-dashoffset: 0; stroke-linejoin: miter; stroke-miterlimit: 4; fill: none; fill-rule: nonzero; opacity: 1;"
          transform=" translate(-10.78, -3.15)"
          d="M 8.45352 4.41097 C 8.5128 4.96507 8.95846 5.41073 9.51229 5.47246 C 9.92365 5.51831 10.346 5.55769 10.7766 5.55769 C 11.2073 5.55769 11.6296 5.51831 12.041 5.47246 C 12.5948 5.41073 13.0405 4.96507 13.0998 4.41097 C 13.1435 4.00193 13.1805 3.58198 13.1805 3.15385 C 13.1805 2.72571 13.1435 2.30576 13.0998 1.89672 C 13.0405 1.34262 12.5948 0.896966 12.041 0.835234 C 11.6296 0.789382 11.2073 0.75 10.7767 0.75 C 10.346 0.75 9.92365 0.789382 9.51229 0.835234 C 8.95846 0.896966 8.5128 1.34262 8.45352 1.89672 C 8.40976 2.30576 8.3728 2.72571 8.3728 3.15385 C 8.3728 3.58198 8.40976 4.00193 8.45352 4.41097 Z"
          stroke-linecap="round" />
      </g>
      <g transform="matrix(1 0 0 1 -3.78 -3.85)">
        <path
          style="stroke: rgb(255,255,255); stroke-width: 1; stroke-dasharray: none; stroke-linecap: butt; stroke-dashoffset: 0; stroke-linejoin: miter; stroke-miterlimit: 4; fill: none; fill-rule: nonzero; opacity: 1;"
          transform=" translate(-3.22, -3.15)"
          d="M 0.900298 4.41097 C 0.95958 4.96507 1.40524 5.41073 1.95906 5.47246 C 2.37043 5.51831 2.7928 5.55769 3.22343 5.55769 C 3.65406 5.55769 4.07643 5.51831 4.48779 5.47246 C 5.04162 5.41073 5.48727 4.96507 5.54656 4.41097 C 5.59032 4.00193 5.62727 3.58198 5.62727 3.15385 C 5.62727 2.72571 5.59032 2.30576 5.54656 1.89672 C 5.48727 1.34262 5.04162 0.896966 4.48779 0.835234 C 4.07643 0.789382 3.65406 0.75 3.22343 0.75 C 2.7928 0.75 2.37043 0.789382 1.95906 0.835234 C 1.40524 0.896966 0.95958 1.34262 0.900298 1.89672 C 0.856535 2.30576 0.81958 2.72571 0.81958 3.15385 C 0.81958 3.58198 0.856535 4.00193 0.900298 4.41097 Z"
          stroke-linecap="round" />
      </g>
      <g transform="matrix(1 0 0 1 -3.78 3.85)">
        <path
          style="stroke: rgb(255,255,255); stroke-width: 1; stroke-dasharray: none; stroke-linecap: butt; stroke-dashoffset: 0; stroke-linejoin: miter; stroke-miterlimit: 4; fill: none; fill-rule: nonzero; opacity: 1;"
          transform=" translate(-3.22, -10.85)"
          d="M 0.900298 12.1033 C 0.95958 12.6574 1.40524 13.103 1.95906 13.1648 C 2.37043 13.2106 2.7928 13.25 3.22343 13.25 C 3.65406 13.25 4.07643 13.2106 4.48779 13.1648 C 5.04162 13.103 5.48727 12.6574 5.54656 12.1033 C 5.59032 11.6943 5.62727 11.2743 5.62727 10.8462 C 5.62727 10.418 5.59032 9.99808 5.54656 9.58904 C 5.48727 9.03495 5.04162 8.58929 4.48779 8.52756 C 4.07643 8.4817 3.65406 8.44232 3.22343 8.44232 C 2.7928 8.44232 2.37043 8.4817 1.95906 8.52756 C 1.40524 8.58929 0.95958 9.03495 0.900298 9.58904 C 0.856535 9.99808 0.81958 10.418 0.81958 10.8462 C 0.81958 11.2743 0.856535 11.6943 0.900298 12.1033 Z"
          stroke-linecap="round" />
      </g>
      <g transform="matrix(1 0 0 1 3.78 3.85)">
        <path
          style="stroke: rgb(255,255,255); stroke-width: 1; stroke-dasharray: none; stroke-linecap: butt; stroke-dashoffset: 0; stroke-linejoin: miter; stroke-miterlimit: 4; fill: none; fill-rule: nonzero; opacity: 1;"
          transform=" translate(-10.78, -10.85)"
          d="M 8.45352 12.1033 C 8.5128 12.6574 8.95846 13.103 9.51229 13.1648 C 9.92365 13.2106 10.346 13.25 10.7766 13.25 C 11.2073 13.25 11.6296 13.2106 12.041 13.1648 C 12.5948 13.103 13.0405 12.6574 13.0998 12.1033 C 13.1435 11.6943 13.1805 11.2743 13.1805 10.8462 C 13.1805 10.418 13.1435 9.99808 13.0998 9.58904 C 13.0405 9.03495 12.5948 8.58929 12.041 8.52756 C 11.6296 8.4817 11.2073 8.44232 10.7767 8.44232 C 10.346 8.44232 9.92365 8.4817 9.51229 8.52756 C 8.95846 8.58929 8.5128 9.03495 8.45352 9.58904 C 8.40976 9.99808 8.3728 10.418 8.3728 10.8462 C 8.3728 11.2743 8.40976 11.6943 8.45352 12.1033 Z"
          stroke-linecap="round" />
      </g>
    </g>
  </g>
</svg>